<svg width="260" height="260" viewBox="0 0 260 260" fill="none" xmlns="http://www.w3.org/2000/svg">
<rect width="260" height="260" rx="30" fill="black"/>
<rect x="120.966" y="204.959" width="38.8021" height="9.46394" rx="4.73197" transform="rotate(-154.443 120.966 204.959)" fill="url(#paint0_linear_2510_349)"/>
<circle cx="118.739" cy="198.649" r="4.73197" transform="rotate(-154.443 118.739 198.649)" fill="#F3F722"/>
<rect x="133" y="179.595" width="38.8021" height="9.46394" rx="4.73197" transform="rotate(180 133 179.595)" fill="url(#paint1_linear_2510_349)"/>
<circle cx="128.268" cy="174.862" r="4.73197" transform="rotate(180 128.268 174.862)" fill="#F3F722"/>
<rect x="125.05" y="153.841" width="38.8021" height="9.46394" rx="4.73197" transform="rotate(157.313 125.05 153.841)" fill="url(#paint2_linear_2510_349)"/>
<circle cx="118.858" cy="151.298" r="4.73197" transform="rotate(157.313 118.858 151.298)" fill="#F3F722"/>
<rect x="101.957" y="141.613" width="38.8021" height="9.46394" rx="4.73197" transform="rotate(134.32 101.957 141.613)" fill="url(#paint3_linear_2510_349)"/>
<circle cx="95.2635" cy="141.692" r="4.73197" transform="rotate(134.32 95.2635 141.692)" fill="#F3F722"/>
<rect x="78.1089" y="149.208" width="38.8021" height="9.46394" rx="4.73197" transform="rotate(111.643 78.1089 149.208)" fill="url(#paint4_linear_2510_349)"/>
<circle cx="71.9638" cy="151.861" r="4.73197" transform="rotate(111.643 71.9638 151.861)" fill="#F3F722"/>
<rect x="95.3047" y="214.99" width="38.8021" height="9.46394" rx="4.73197" transform="rotate(-133.708 95.3047 214.99)" fill="url(#paint5_linear_2510_349)"/>
<circle cx="95.457" cy="208.298" r="4.73197" transform="rotate(-133.708 95.457 208.298)" fill="#F3F722"/>
<rect x="69.2432" y="205.338" width="38.8021" height="9.46394" rx="4.73197" transform="rotate(-110.522 69.2432 205.338)" fill="url(#paint6_linear_2510_349)"/>
<circle cx="72.0179" cy="199.246" r="4.73197" transform="rotate(-110.522 72.0179 199.246)" fill="#F3F722"/>
<circle cx="62.9663" cy="175.429" r="4.73197" transform="rotate(180 62.9663 175.429)" fill="#F3F722"/>
<path d="M149.676 121V46H162.476V114.8L157.976 114L210.276 46H227.476V121H214.676V51.6L219.176 52.4L166.476 121H149.676Z" fill="white"/>
<path d="M132.9 46V121H120.3V50L124.4 50.2L89.5 121H75.4L40.5 50.3L44.6 50.1V121H32V46H52.2L85.8 115.3H79.2L112.7 46H132.9Z" fill="white"/>
<rect width="13" height="75" transform="matrix(1 0 0 -1 32 212)" fill="white"/>
<defs>
<linearGradient id="paint0_linear_2510_349" x1="120.966" y1="209.691" x2="159.768" y2="209.691" gradientUnits="userSpaceOnUse">
<stop stop-color="#F3F722"/>
<stop offset="0.767641" stop-color="#F3F722" stop-opacity="0"/>
</linearGradient>
<linearGradient id="paint1_linear_2510_349" x1="140.192" y1="184.327" x2="171.802" y2="184.327" gradientUnits="userSpaceOnUse">
<stop stop-color="#F3F722"/>
<stop offset="0.934404" stop-color="#F3F722" stop-opacity="0"/>
</linearGradient>
<linearGradient id="paint2_linear_2510_349" x1="125.05" y1="158.573" x2="156.317" y2="158.794" gradientUnits="userSpaceOnUse">
<stop stop-color="#F3F722"/>
<stop offset="1" stop-color="#F3F722" stop-opacity="0"/>
</linearGradient>
<linearGradient id="paint3_linear_2510_349" x1="101.957" y1="146.345" x2="126.881" y2="146.772" gradientUnits="userSpaceOnUse">
<stop stop-color="#F3F722"/>
<stop offset="1" stop-color="#F3F722" stop-opacity="0"/>
</linearGradient>
<linearGradient id="paint4_linear_2510_349" x1="78.1089" y1="153.94" x2="116.911" y2="153.94" gradientUnits="userSpaceOnUse">
<stop offset="0.170694" stop-color="#F3F722"/>
<stop offset="0.517616" stop-color="#F3F722" stop-opacity="0"/>
</linearGradient>
<linearGradient id="paint5_linear_2510_349" x1="95.3047" y1="219.722" x2="122.904" y2="219.81" gradientUnits="userSpaceOnUse">
<stop stop-color="#F3F722"/>
<stop offset="1" stop-color="#F3F722" stop-opacity="0"/>
</linearGradient>
<linearGradient id="paint6_linear_2510_349" x1="69.2432" y1="210.07" x2="108.045" y2="210.07" gradientUnits="userSpaceOnUse">
<stop offset="0.116877" stop-color="#F3F722"/>
<stop offset="0.601814" stop-color="#F3F722" stop-opacity="0"/>
</linearGradient>
</defs>
</svg>
